<svg xmlns="http://www.w3.org/2000/svg" 
viewBox="0 0 500 500" 
  xmlns:xlink="http://www.w3.org/1999/xlink">
  <defs>
    <linearGradient id="gradient-2">
      <stop offset="0" style="stop-color: rgb(189, 0, 255);"></stop>
      <stop offset="1" style="stop-color: rgb(0, 170, 255);"></stop>
    </linearGradient>
    <linearGradient gradientUnits="userSpaceOnUse" x1="175" y1="25" x2="175" y2="421" id="gradient-2-0" xlink:href="#gradient-2" gradientTransform="matrix(0.92621, 0.377005, -0.310754, 0.763448, 142.170872, -30.544907)"></linearGradient>
    <linearGradient id="gradient-0">
      <stop offset="0" style="stop-color: rgb(255, 119, 0);"></stop>
      <stop offset="1" style="stop-color: rgb(255, 0, 92);"></stop>
    </linearGradient>
    <linearGradient id="gradient-0-0" xlink:href="#gradient-0" gradientUnits="userSpaceOnUse" x1="325" y1="175" x2="325" y2="475" gradientTransform="matrix(1, 0, 0, 1, 4.249642, 4.25029)"></linearGradient>
  </defs>
  <rect width="500" height="500" style="stroke: rgb(0, 0, 0); stroke-width: 0px; fill: rgb(26, 26, 28);"></rect>
  <path d="M 104.25 254.25 L 254.25 104.25" style="stroke-linecap: round; stroke-width: 42;" fill="none" id="object-0"></path>
  <path d="M 254.25 404.25 L 404.25 254.25" style="stroke-linecap: round; stroke-width: 42;" fill="none" id="object-1"></path>
  <path d="M 104.25 254.25 L 254.25 404.25" style="stroke-linecap: round; stroke-width: 42;" fill="none" id="object-2"></path>
  <path d="M 269.099 389.401 C 277.3 397.602 277.3 410.898 269.099 419.099 C 260.898 427.3 247.602 427.3 239.401 419.099 L 140.323 320.021 C 129.62 325.904 117.326 329.25 104.25 329.25 C 62.829 329.25 29.25 295.671 29.25 254.25 C 29.25 212.829 62.829 179.25 104.25 179.25 C 117.326 179.25 129.62 182.596 140.323 188.479 L 188.479 140.323 C 182.596 129.62 179.25 117.326 179.25 104.25 C 179.25 62.829 212.829 29.25 254.25 29.25 C 295.671 29.25 329.25 62.829 329.25 104.25 C 329.25 145.671 295.671 179.25 254.25 179.25 C 241.174 179.25 228.88 175.904 218.177 170.021 L 170.021 218.177 C 175.904 228.88 179.25 241.174 179.25 254.25 C 179.25 267.326 175.904 279.62 170.021 290.323 L 269.099 389.401 Z" style="fill: url(#gradient-2-0); stroke-width: 1;" id="object-3"></path>
  <path d="M 187.75 254.25 C 187.75 276.697 177.937 298.65 163.293 313.293 C 148.65 327.936 126.697 337.75 104.25 337.75 C 81.803 337.75 59.85 327.937 45.207 313.293 C 30.564 298.65 20.75 276.697 20.75 254.25 C 20.75 231.803 30.563 209.85 45.207 195.207 C 59.85 180.564 81.803 170.75 104.25 170.75 C 126.697 170.75 148.65 180.563 163.293 195.207 C 177.936 209.85 187.75 231.803 187.75 254.25 Z M 151.273 207.227 C 138.772 194.726 123.224 187.75 104.25 187.75 C 85.276 187.75 69.729 194.726 57.227 207.227 C 44.726 219.728 37.75 235.276 37.75 254.25 C 37.75 273.224 44.726 288.771 57.227 301.273 C 69.728 313.774 85.276 320.75 104.25 320.75 C 123.224 320.75 138.771 313.774 151.273 301.273 C 163.774 288.772 170.75 273.224 170.75 254.25 C 170.75 235.276 163.774 219.729 151.273 207.227 Z" style="fill: none; stroke-width: 1;" id="object-4"></path>
  <path d="M 337.75 104.25 C 337.75 126.697 327.937 148.65 313.293 163.293 C 298.65 177.936 276.697 187.75 254.25 187.75 C 231.803 187.75 209.85 177.937 195.207 163.293 C 180.564 148.65 170.75 126.697 170.75 104.25 C 170.75 81.803 180.563 59.85 195.207 45.207 C 209.85 30.564 231.803 20.75 254.25 20.75 C 276.697 20.75 298.65 30.563 313.293 45.207 C 327.936 59.85 337.75 81.803 337.75 104.25 Z M 301.273 57.227 C 288.772 44.726 273.224 37.75 254.25 37.75 C 235.276 37.75 219.729 44.726 207.227 57.227 C 194.726 69.728 187.75 85.276 187.75 104.25 C 187.75 123.224 194.726 138.771 207.227 151.273 C 219.728 163.774 235.276 170.75 254.25 170.75 C 273.224 170.75 288.771 163.774 301.273 151.273 C 313.774 138.772 320.75 123.224 320.75 104.25 C 320.75 85.276 313.774 69.729 301.273 57.227 Z" style="fill: none; stroke-width: 1;" id="object-5"></path>
  <path d="M 479.25 254.25 C 479.25 295.671 445.671 329.25 404.25 329.25 C 391.174 329.25 378.88 325.904 368.177 320.021 L 320.021 368.177 C 325.904 378.88 329.25 391.174 329.25 404.25 C 329.25 445.671 295.671 479.25 254.25 479.25 C 212.829 479.25 179.25 445.671 179.25 404.25 C 179.25 362.829 212.829 329.25 254.25 329.25 C 267.326 329.25 279.62 332.596 290.323 338.479 L 338.479 290.323 C 332.596 279.62 329.25 267.326 329.25 254.25 C 329.25 212.829 362.829 179.25 404.25 179.25 C 445.671 179.25 479.25 212.829 479.25 254.25 Z" style="stroke-linecap: round; stroke-width: 17; fill: url(#gradient-0-0);" id="object-6"></path>
</svg>
