<svg xmlns="http://www.w3.org/2000/svg" viewBox="0 0 500 500">
  <defs>
    <linearGradient id="gradient-2">
      <stop offset="0" style="stop-color: rgb(189, 0, 255);"></stop>
      <stop offset="1" style="stop-color: rgb(0, 170, 255);"></stop>
    </linearGradient>
    <linearGradient gradientUnits="userSpaceOnUse" x1="175" y1="25" x2="175" y2="421"
      id="gradient-2-0" href="#gradient-2"
      gradientTransform="matrix(0.92621, 0.377005, -0.310754, 0.763448, 137.921232, -34.795202)"></linearGradient>
    <linearGradient id="gradient-0">
      <stop offset="0" style="stop-color: rgb(255, 119, 0);"></stop>
      <stop offset="1" style="stop-color: rgb(255, 0, 92);"></stop>
    </linearGradient>
    <linearGradient id="gradient-0-0" href="#gradient-0" gradientUnits="userSpaceOnUse" x1="325"
      y1="175" x2="325" y2="475"></linearGradient>
  </defs>
  <path d="M 100 250 L 250 100" style="stroke-linecap: round; stroke-width: 42px;" fill="none"
    id="object-0"></path>
  <path d="M 250 400 L 400 250" style="stroke-linecap: round; stroke-width: 42px;" fill="none"
    id="object-1"></path>
  <path d="M 100 250 L 250 400" style="stroke-linecap: round; stroke-width: 42px;" fill="none"
    id="object-2"></path>
  <path
    d="M 264.849 385.151 C 273.05 393.352 273.05 406.648 264.849 414.849 C 256.648 423.05 243.352 423.05 235.151 414.849 L 136.073 315.771 C 125.37 321.654 113.076 325 100 325 C 58.579 325 25 291.421 25 250 C 25 208.579 58.579 175 100 175 C 113.076 175 125.37 178.346 136.073 184.229 L 184.229 136.073 C 178.346 125.37 175 113.076 175 100 C 175 58.579 208.579 25 250 25 C 291.421 25 325 58.579 325 100 C 325 141.421 291.421 175 250 175 C 236.924 175 224.63 171.654 213.927 165.771 L 165.771 213.927 C 171.654 224.63 175 236.924 175 250 C 175 263.076 171.654 275.37 165.771 286.073 Z"
    style="fill: url(&quot;#gradient-2-0&quot;);" id="object-3"></path>
  <path
    d="M 183.5 250 C 183.5 272.447 173.687 294.4 159.043 309.043 C 144.4 323.686 122.447 333.5 100 333.5 C 77.553 333.5 55.6 323.687 40.957 309.043 C 26.314 294.4 16.5 272.447 16.5 250 C 16.5 227.553 26.313 205.6 40.957 190.957 C 55.6 176.314 77.553 166.5 100 166.5 C 122.447 166.5 144.4 176.313 159.043 190.957 C 173.686 205.6 183.5 227.553 183.5 250 Z M 147.023 202.977 C 134.522 190.476 118.974 183.5 100 183.5 C 81.026 183.5 65.479 190.476 52.977 202.977 C 40.476 215.478 33.5 231.026 33.5 250 C 33.5 268.974 40.476 284.521 52.977 297.023 C 65.478 309.524 81.026 316.5 100 316.5 C 118.974 316.5 134.521 309.524 147.023 297.023 C 159.524 284.522 166.5 268.974 166.5 250 C 166.5 231.026 159.524 215.479 147.023 202.977 Z"
    style="fill: none;" id="object-4"></path>
  <path
    d="M 333.5 100 C 333.5 122.447 323.687 144.4 309.043 159.043 C 294.4 173.686 272.447 183.5 250 183.5 C 227.553 183.5 205.6 173.687 190.957 159.043 C 176.314 144.4 166.5 122.447 166.5 100 C 166.5 77.553 176.313 55.6 190.957 40.957 C 205.6 26.314 227.553 16.5 250 16.5 C 272.447 16.5 294.4 26.313 309.043 40.957 C 323.686 55.6 333.5 77.553 333.5 100 Z M 297.023 52.977 C 284.522 40.476 268.974 33.5 250 33.5 C 231.026 33.5 215.479 40.476 202.977 52.977 C 190.476 65.478 183.5 81.026 183.5 100 C 183.5 118.974 190.476 134.521 202.977 147.023 C 215.478 159.524 231.026 166.5 250 166.5 C 268.974 166.5 284.521 159.524 297.023 147.023 C 309.524 134.522 316.5 118.974 316.5 100 C 316.5 81.026 309.524 65.479 297.023 52.977 Z"
    style="fill: none;" id="object-5"></path>
  <path
    d="M 475 250 C 475 291.421 441.421 325 400 325 C 386.924 325 374.63 321.654 363.927 315.771 L 315.771 363.927 C 321.654 374.63 325 386.924 325 400 C 325 441.421 291.421 475 250 475 C 208.579 475 175 441.421 175 400 C 175 358.579 208.579 325 250 325 C 263.076 325 275.37 328.346 286.073 334.229 L 334.229 286.073 C 328.346 275.37 325 263.076 325 250 C 325 208.579 358.579 175 400 175 C 441.421 175 475 208.579 475 250 Z"
    style="stroke-linecap: round; stroke-width: 17px; fill: url(&quot;#gradient-0-0&quot;);"
    id="object-6"></path>
</svg>